<?xml version="1.0" encoding="iso-8859-1"?>
<!-- Generator: Adobe Illustrator 19.0.0, SVG Export Plug-In . SVG Version: 6.00 Build 0)  -->
<svg version="1.1" id="Layer_1" xmlns="http://www.w3.org/2000/svg" xmlns:xlink="http://www.w3.org/1999/xlink" x="0px" y="0px"
	 viewBox="0 0 512.006 512.006" style="enable-background:new 0 0 512.006 512.006;" xml:space="preserve">
<path style="fill:#F4DA49;" d="M366.899,143.649H236.255l54.471-120.635l108.518,49L366.899,143.649z"/>
<polygon style="fill:#E69824;" points="399.245,72.014 343.292,46.749 299.538,143.65 366.899,143.65 "/>
<path style="fill:#79D5DE;" d="M181.598,143.649H50.955L8.216,49L116.734,0L181.598,143.649z"/>
<polygon style="fill:#3D6C6F;" points="116.734,0 61.979,24.724 115.679,143.65 181.598,143.65 "/>
<path style="fill:#A7DC5E;" d="M279.82,143.649H148.649V9.925h131.17v133.724H279.82z"/>
<path style="fill:#6BAC2E;" d="M279.82,143.649h-65.585V9.925h65.585V143.649z"/>
<path style="fill:#B90B27;" d="M376.364,327.811H62.025L26.379,110.247h395.748L376.364,327.811z"/>
<polygon style="fill:#8A091F;" points="422.127,110.247 214.235,110.247 214.235,327.812 376.364,327.812 "/>
<polygon style="fill:#CBCBCE;" points="373.574,399.176 76.213,399.176 76.213,365.773 346.466,365.773 411.805,55.147 
	503.79,55.147 503.79,88.549 438.913,88.549 "/>
<g>
	<circle style="fill:#575759;" cx="93.02" cy="470.929" r="41.077"/>
	<circle style="fill:#575759;" cx="339.481" cy="470.929" r="41.077"/>
</g>
<g>
</g>
<g>
</g>
<g>
</g>
<g>
</g>
<g>
</g>
<g>
</g>
<g>
</g>
<g>
</g>
<g>
</g>
<g>
</g>
<g>
</g>
<g>
</g>
<g>
</g>
<g>
</g>
<g>
</g>
</svg>
